<?xml version="1.0" standalone="no"?>
<!DOCTYPE svg PUBLIC "-//W3C//DTD SVG 20010904//EN"
 "http://www.w3.org/TR/2001/REC-SVG-20010904/DTD/svg10.dtd">
<svg version="1.0" xmlns="http://www.w3.org/2000/svg"
 width="800.000000pt" height="400.000000pt" viewBox="0 0 800.000000 400.000000"
 preserveAspectRatio="xMidYMid meet">

<g transform="translate(0.000000,400.000000) scale(0.100000,-0.100000)"
fill="#000000" stroke="none">
<path d="M0 2000 l0 -2000 4000 0 4000 0 0 2000 0 2000 -4000 0 -4000 0 0
-2000z m4100 1260 c5 -224 7 -250 28 -302 26 -65 72 -126 122 -163 65 -48 112
-55 377 -55 l243 0 0 -381 0 -382 -56 6 c-67 7 -218 -8 -294 -30 -73 -20 -187
-73 -247 -114 -63 -43 -178 -153 -215 -206 l-29 -43 -467 0 c-465 0 -468 0
-512 -22 -25 -13 -57 -41 -73 -64 -50 -71 -38 -182 25 -241 55 -52 68 -53 491
-53 l394 0 6 -112 c7 -144 34 -247 96 -371 l49 -97 -577 2 -576 3 -68 33 c-85
42 -185 140 -224 219 l-28 58 0 1125 0 1125 31 65 c53 110 161 211 255 238 21
6 267 10 639 9 l605 -2 5 -245z m274 229 c93 -43 430 -350 470 -426 9 -18 17
-54 19 -80 l2 -48 -222 -3 c-262 -3 -276 0 -320 75 l-28 48 -3 228 c-3 224 -3
227 17 227 12 0 41 -9 65 -21z m596 -1729 c293 -99 470 -341 470 -643 0 -112
-20 -197 -72 -307 -73 -154 -232 -287 -402 -339 -166 -51 -338 -35 -504 45
-76 37 -108 60 -172 124 -65 65 -87 96 -124 172 -56 118 -70 178 -70 303 -1
123 13 184 69 300 87 181 240 305 440 357 97 25 273 19 365 -12z"/>
<path d="M3088 2350 c-88 -27 -141 -97 -140 -186 0 -64 21 -104 75 -148 l39
-31 626 -3 c421 -2 639 0 663 8 47 13 105 77 120 132 22 81 -22 176 -98 214
-36 18 -72 19 -648 21 -335 1 -622 -2 -637 -7z"/>
<path d="M4699 1561 l-29 -29 0 -161 0 -161 -159 0 c-157 0 -160 0 -190 -26
-40 -33 -43 -89 -7 -131 l24 -28 166 -3 166 -3 0 -160 0 -161 29 -29 c50 -50
127 -33 150 33 6 17 11 96 11 174 l0 144 150 0 c115 0 158 4 180 15 59 30 68
98 21 146 l-29 29 -161 0 -160 0 -3 166 -3 166 -28 24 c-40 34 -90 32 -128 -5z"/>
</g>
</svg>
